<?xml version="1.0" encoding="UTF-8"?>
<svg width="298px" height="41px" viewBox="0 0 298 41" version="1.1" xmlns="http://www.w3.org/2000/svg" xmlns:xlink="http://www.w3.org/1999/xlink">
    <title>culture</title>
    <g id="Symbols" stroke="none" stroke-width="1" fill="none" fill-rule="evenodd">
        <g id="culture" transform="translate(1.000000, 1.000000)" fill-rule="nonzero" stroke="#000000">
            <path d="M20.4,38.352 C28.752,38.352 36.192,35.472 38.88,33.024 L39.888,26.64 L39.648,26.448 C36.048,30.144 28.128,32.112 21.792,32.112 C13.056,32.112 8.256,27.504 8.256,21.744 C8.256,17.184 11.04,14.496 16.8,14.496 C24.096,14.16 31.488,19.248 34.704,24.72 L34.992,24.72 L40.272,16.272 C34.128,11.808 27.552,11.712 21.936,11.712 C11.712,11.712 -4.54747351e-13,17.184 -4.54747351e-13,25.584 C-4.54747351e-13,33.552 9.168,38.352 20.4,38.352 Z M65.712,38.544 C66.72,38.544 75.072,35.664 80.448,31.152 L80.448,38.4 L91.152,35.616 L91.152,35.52 C90.816,35.328 90,34.224 90,29.952 L90.048,25.152 C90.048,15.0175135 90.4115237,13.7439182 90.4311737,13.682478 L90.432,13.68 L79.344,13.68 C79.344,13.68 80.448,14.736 80.448,21.792 L80.448,29.184 C76.56,31.92 72.432,32.496 69.36,32.496 C60.624,32.496 58.176,29.616 58.176,25.008 L58.176,24.192 C58.176,15.36 58.56,13.68 58.56,13.68 L47.472,13.68 C47.472,13.68 48.384,14.736 48.576,21.792 L48.576,27.072 C48.576,34.512 53.76,38.64 65.712,38.544 Z M113.184,37.68 C113.184,37.68 111.648,36.624 111.648,29.568 L111.648,-1.42108547e-14 L99.072,4.368 L99.072,4.704 C100.704,5.04 102.048,6.144 102.048,12.528 L102.048,26.208 C102.048,36.4832432 101.160482,37.6497502 101.136495,37.679401 L113.184,37.68 Z M140.64,38.64 C145.392,38.64 149.28,37.776 152.448,35.424 L155.04,27.84 L154.944,27.792 C152.4,31.2 148.128,32.256 145.296,32.256 C137.376,32.256 134.448,29.328 134.448,23.568 L134.448,15.984 L152.88,16.992 L153.744,10.992 L134.448,12.432 L134.448,6.048 L133.872,6.048 C130.896,9.696 122.928,13.2 116.448,13.824 L115.68,13.872 L115.68,14.976 L124.848,15.456 L124.848,25.44 C124.848,34.272 130.32,38.64 140.64,38.64 Z" id="cult" fill="#000000"></path>
            <path d="M179.136,38.544 C180.144,38.544 188.496,35.664 193.872,31.152 L193.872,38.4 L204.576,35.616 L204.576,35.52 C204.24,35.328 203.424,34.224 203.424,29.952 L203.472,25.152 C203.472,14.736 203.856,13.68 203.856,13.68 L192.768,13.68 C192.768,13.68 193.872,14.736 193.872,21.792 L193.872,29.184 C189.984,31.92 185.856,32.496 182.784,32.496 C174.048,32.496 171.6,29.616 171.6,25.008 L171.6,24.192 C171.6,15.36 171.984,13.68 171.984,13.68 L160.896,13.68 C160.896,13.68 161.808,14.736 162,21.792 L162,27.072 C162,34.512 167.184,38.64 179.136,38.544 Z M226.224,37.824 C225.744,35.808 225.12,33.792 225.12,31.776 L225.12,22.992 C231.648,18.816 240.576,18.768 247.152,23.184 L247.536,23.328 L250.512,13.68 C247.44,12.48 243.072,12.144 238.8,12.528 C236.256,12.768 230.016,16.608 225.12,20.64 L225.12,12.288 L213.216,16.464 C213.216,16.464 215.52,16.944 215.52,22.176 L215.52,32.256 C215.52,35.4048 214.93632,37.07904 214.678272,37.622784 L214.628292,37.7221224 C214.591347,37.7906939 214.566857,37.824 214.56,37.824 L226.224,37.824 Z M291.648,33.024 L295.152,27.504 L294.96,27.264 C290.928,30.384 282.528,32.112 277.2,32.112 C271.776,32.112 266.112,29.664 264.24,25.152 L295.632,25.152 C295.632,15.552 287.712,11.712 277.584,11.712 C265.776,11.712 255.312,18.096 255.312,25.584 C255.312,34.032 263.808,38.352 274.176,38.352 C280.704,38.4 287.328,36.192 291.648,33.024 Z M263.664,23.184 C263.616,22.704 263.568,22.224 263.568,21.744 C263.568,17.328 266.352,14.64 272.16,14.64 C277.92,14.64 284.016,16.272 285.648,22.032 L263.664,23.184 Z" id="ure" fill="#FFFFFF"></path>
        </g>
    </g>
</svg>