<?xml version="1.0" encoding="UTF-8"?>
<svg width="76px" height="81px" viewBox="0 0 76 81" version="1.1" xmlns="http://www.w3.org/2000/svg" xmlns:xlink="http://www.w3.org/1999/xlink">
    <title>Slice</title>
    <g id="Page-1" stroke="none" stroke-width="1" fill="none" fill-rule="evenodd">
        <path d="M37.926,1 L2.507,19.672 L1,20.467 L1,22.268 L1,61.207 L36.426,79.883 L37.926,80.674 L39.425,79.883 L74.851,61.207 L74.851,20.467 L73.344,19.672 L37.926,1 Z M27.709,33.256 L5.688,21.387 L37.926,4.391 L70.163,21.387 L48.143,33.256 L37.926,38.764 L27.709,33.256 Z M39.425,41.363 L49.603,35.878 L71.852,23.885 L71.852,59.396 L39.425,76.493 L39.425,41.363 Z M4,59.396 L4,23.885 L26.248,35.878 L36.426,41.363 L36.426,76.493 L4,59.396 Z" id="Fill-1" fill="#1D1D1B"></path>
    </g>
</svg>