<?xml version="1.0" encoding="UTF-8"?>
<svg width="256px" height="255px" viewBox="0 0 256 255" version="1.1" xmlns="http://www.w3.org/2000/svg" xmlns:xlink="http://www.w3.org/1999/xlink">
    <title>Group 3</title>
    <defs>
        <polygon id="path-1" points="0.0004 0 255.342 0 255.342 254.9957 0.0004 254.9957"></polygon>
    </defs>
    <g id="Page-1" stroke="none" stroke-width="1" fill="none" fill-rule="evenodd">
        <g id="Group-3">
            <mask id="mask-2" fill="white">
                <use xlink:href="#path-1"></use>
            </mask>
            <g id="Clip-2"></g>
            <path d="M22.7764,173.3197 L22.7754,173.3197 C22.5254,173.9587 22.0814,174.4037 21.4184,174.6817 C20.6104,175.0197 19.8644,175.0357 19.1324,174.7317 C18.3994,174.4257 17.8854,173.8997 17.5594,173.1197 C17.2854,172.4667 17.2724,171.8367 17.5184,171.1947 C17.7614,170.5617 18.2024,170.1187 18.8644,169.8407 C19.2694,169.6717 19.6754,169.5857 20.0764,169.5857 C20.1974,169.5857 20.3174,169.5937 20.4364,169.6087 C20.9604,169.6767 21.4144,169.8617 21.8224,170.1747 C22.2324,170.4897 22.5314,170.8807 22.7364,171.3687 C23.0154,172.0377 23.0294,172.6757 22.7764,173.3197 L22.7764,173.3197 Z M23.6584,170.9827 C23.3884,170.3377 22.9744,169.7987 22.4294,169.3817 C21.8854,168.9647 21.2584,168.7077 20.5654,168.6177 C19.8744,168.5257 19.1704,168.6287 18.4774,168.9187 C17.5624,169.3017 16.9254,169.9477 16.5854,170.8367 C16.2464,171.7177 16.2644,172.6167 16.6374,173.5067 C17.0634,174.5257 17.7734,175.2487 18.7484,175.6547 C19.2164,175.8507 19.6974,175.9477 20.1864,175.9477 C20.7164,175.9477 21.2574,175.8337 21.8044,175.6037 C22.7164,175.2227 23.3564,174.5767 23.7064,173.6857 C24.0544,172.8007 24.0384,171.8917 23.6584,170.9827 L23.6584,170.9827 Z M35.0444,206.2377 C33.2354,206.6837 31.5054,206.6807 29.8994,206.2277 C28.3164,205.7817 26.9894,204.8777 25.9534,203.5397 C24.8074,202.0597 24.3594,200.5967 24.5834,199.0677 C24.8034,197.5527 25.7064,196.1737 27.2664,194.9677 C28.9034,193.7007 30.6604,192.8307 32.4864,192.3807 C33.3844,192.1597 34.2634,192.0487 35.1174,192.0487 C35.9824,192.0487 36.8234,192.1627 37.6304,192.3907 C39.2144,192.8367 40.5434,193.7417 41.5774,195.0797 C42.7224,196.5607 43.1714,198.0237 42.9474,199.5517 C42.7264,201.0647 41.8244,202.4447 40.2634,203.6517 C38.6254,204.9187 36.8694,205.7887 35.0444,206.2377 L35.0444,206.2377 Z M43.9374,199.6957 C44.1984,197.9097 43.6714,196.1507 42.3684,194.4677 C41.1994,192.9567 39.6974,191.9337 37.9024,191.4277 C36.1304,190.9287 34.2254,190.9227 32.2484,191.4097 C30.2844,191.8937 28.4024,192.8237 26.6554,194.1767 C24.8824,195.5467 23.8524,197.1437 23.5924,198.9227 C23.3334,200.7097 23.8604,202.4687 25.1624,204.1517 C26.3324,205.6637 27.8354,206.6857 29.6284,207.1907 C30.5264,207.4437 31.4574,207.5697 32.4154,207.5697 C33.3474,207.5697 34.3054,207.4497 35.2824,207.2087 C37.2444,206.7257 39.1264,205.7957 40.8754,204.4427 C42.6474,203.0707 43.6774,201.4737 43.9374,199.6957 L43.9374,199.6957 Z M39.0304,198.5897 C38.9054,199.1777 38.4334,199.7907 37.6304,200.4127 C36.7404,201.1007 35.6884,201.6837 34.5034,202.1457 C33.3394,202.5977 32.2224,202.8017 31.1754,202.7557 C30.2034,202.7117 29.4794,202.3647 28.9634,201.6977 C28.5314,201.1397 28.3804,200.5937 28.5004,200.0297 C28.6264,199.4407 29.0974,198.8267 29.9014,198.2047 C30.7894,197.5177 31.8404,196.9347 33.0274,196.4737 C34.0804,196.0627 35.0964,195.8557 36.0534,195.8557 C36.1544,195.8557 36.2554,195.8587 36.3534,195.8627 C37.3274,195.9077 38.0514,196.2537 38.5684,196.9207 C38.9994,197.4797 39.1504,198.0257 39.0304,198.5897 L39.0304,198.5897 Z M36.4004,194.8637 C35.2094,194.8067 33.9604,195.0367 32.6644,195.5417 C31.3884,196.0377 30.2534,196.6677 29.2904,197.4137 C28.2944,198.1837 27.6994,198.9937 27.5214,199.8207 C27.3394,200.6797 27.5584,201.5167 28.1724,202.3097 C28.8694,203.2107 29.8654,203.6967 31.1304,203.7547 C31.2454,203.7597 31.3604,203.7617 31.4764,203.7617 C32.5584,203.7617 33.6964,203.5317 34.8664,203.0767 C36.1404,202.5807 37.2764,201.9507 38.2414,201.2037 C39.2384,200.4337 39.8334,199.6237 40.0084,198.7977 C40.1914,197.9417 39.9724,197.1047 39.3594,196.3087 C38.6624,195.4087 37.6674,194.9227 36.4004,194.8637 L36.4004,194.8637 Z M45.4984,223.1947 C44.2274,222.8037 43.0394,222.1177 41.9674,221.1577 C41.0944,220.3767 40.4494,219.5387 40.0474,218.6687 C39.6564,217.8197 39.5044,216.9847 39.5944,216.1877 C39.6844,215.3917 39.9954,214.7077 40.5454,214.0937 C41.2164,213.3427 42.0694,212.8167 43.0794,212.5297 C43.8064,212.3227 44.7384,212.2187 45.8604,212.2187 C46.3514,212.2187 46.8794,212.2387 47.4414,212.2787 L54.9074,212.8147 L48.6644,207.2237 L50.6004,205.7637 L59.9474,214.1327 L58.3894,215.2997 L48.2134,214.6327 C46.8794,214.5667 45.8874,214.6127 45.1914,214.7767 C44.4414,214.9497 43.8244,215.3017 43.3584,215.8227 C42.8614,216.3777 42.6644,217.0477 42.7874,217.7627 C42.9044,218.4437 43.3284,219.1137 44.0474,219.7577 C44.6364,220.2847 45.3314,220.6647 46.1124,220.8857 C46.7444,221.0657 47.4064,221.1297 48.0744,221.0837 L48.5984,223.5017 C47.6134,223.6297 46.5744,223.5277 45.4984,223.1947 L45.4984,223.1947 Z M48.3944,220.0427 C47.6994,220.1457 47.0244,220.1057 46.3854,219.9237 C45.7524,219.7437 45.1884,219.4377 44.7134,219.0117 C44.1674,218.5237 43.8504,218.0457 43.7724,217.5927 C43.7004,217.1737 43.8044,216.8227 44.1034,216.4907 C44.4344,216.1207 44.8634,215.8787 45.4174,215.7507 C46.0154,215.6117 46.9394,215.5697 48.1554,215.6307 L58.6924,216.3227 L61.5234,214.2027 L50.6554,204.4697 L47.0914,207.1567 L52.0614,211.6077 L47.5124,211.2817 C45.5474,211.1397 43.9634,211.2377 42.8054,211.5677 C41.6114,211.9067 40.5994,212.5327 39.7984,213.4267 C39.1174,214.1897 38.7144,215.0807 38.6004,216.0737 C38.4894,217.0557 38.6704,218.0697 39.1384,219.0877 C39.5984,220.0827 40.3254,221.0297 41.2994,221.9027 C42.4804,222.9597 43.7944,223.7157 45.2034,224.1507 C46.0774,224.4197 46.9334,224.5547 47.7644,224.5547 C48.2884,224.5547 48.8014,224.5017 49.3014,224.3937 L49.7924,224.2887 L48.8574,219.9737 L48.3944,220.0427 Z M69.6174,227.7117 C69.0304,228.6717 68.2544,229.5907 67.3114,230.4417 C66.3844,231.2787 65.4114,231.8687 64.4194,232.1947 C63.4954,232.4987 62.6944,232.4337 61.9734,231.9927 C61.3724,231.6257 61.0374,231.1697 60.9484,230.5987 C60.8564,230.0027 61.0794,229.2607 61.6094,228.3947 C62.1954,227.4357 62.9714,226.5177 63.9154,225.6647 C64.8414,224.8277 65.8144,224.2377 66.8074,223.9117 C67.7294,223.6077 68.5314,223.6727 69.2534,224.1137 C69.8554,224.4827 70.1904,224.9377 70.2784,225.5077 C70.3704,226.1027 70.1484,226.8437 69.6174,227.7117 L69.6174,227.7117 Z M69.7744,223.2607 C68.8054,222.6667 67.7014,222.5667 66.4954,222.9617 C65.3694,223.3317 64.2754,223.9917 63.2454,224.9227 C62.2294,225.8407 61.3924,226.8327 60.7554,227.8727 C60.0994,228.9467 59.8324,229.9147 59.9604,230.7517 C60.0944,231.6187 60.5964,232.3237 61.4524,232.8467 C62.0364,233.2027 62.6684,233.3817 63.3394,233.3817 C63.7864,233.3817 64.2514,233.3027 64.7314,233.1447 C65.8574,232.7757 66.9504,232.1147 67.9814,231.1837 C68.9954,230.2687 69.8334,229.2757 70.4704,228.2337 C71.1284,227.1577 71.3954,226.1897 71.2664,225.3557 C71.1334,224.4897 70.6314,223.7847 69.7744,223.2607 L69.7744,223.2607 Z M73.2304,229.8017 C72.1504,231.5667 70.8184,233.0047 69.2724,234.0747 C67.7394,235.1347 66.1204,235.7467 64.4604,235.8947 C62.8134,236.0417 61.2574,235.6667 59.8154,234.7847 C58.2184,233.8077 57.2804,232.5997 56.9454,231.0917 C56.6134,229.5987 56.9664,227.9877 57.9964,226.3047 C59.0764,224.5387 60.4084,223.1017 61.9554,222.0317 C63.4874,220.9717 65.1054,220.3597 66.7664,220.2117 C66.9974,220.1917 67.2254,220.1807 67.4534,220.1807 C68.8414,220.1807 70.1714,220.5637 71.4114,221.3217 C73.0084,222.2987 73.9474,223.5077 74.2824,225.0147 C74.6144,226.5077 74.2594,228.1187 73.2304,229.8017 L73.2304,229.8017 Z M71.9324,220.4687 C70.3024,219.4717 68.5364,219.0487 66.6784,219.2157 C64.8424,219.3797 63.0624,220.0497 61.3864,221.2097 C59.7244,222.3587 58.2974,223.8967 57.1424,225.7827 C55.9744,227.6947 55.5794,229.5537 55.9684,231.3087 C56.3604,233.0707 57.4784,234.5267 59.2944,235.6377 C60.6934,236.4937 62.1954,236.9257 63.7684,236.9257 C64.0264,236.9257 64.2864,236.9137 64.5474,236.8907 C66.3824,236.7277 68.1634,236.0567 69.8404,234.8977 C71.5034,233.7467 72.9304,232.2077 74.0844,230.3227 C75.2534,228.4117 75.6484,226.5527 75.2584,224.7977 C74.8674,223.0357 73.7494,221.5797 71.9324,220.4687 L71.9324,220.4687 Z M95.3394,232.5677 L94.2994,234.2137 L84.5554,237.2207 C83.2894,237.6347 82.3824,238.0317 81.7844,238.4347 C81.1464,238.8627 80.6964,239.4117 80.4454,240.0667 C80.1754,240.7737 80.2294,241.4517 80.6044,242.0817 C80.9554,242.6747 81.5904,243.1507 82.4924,243.4947 C83.2284,243.7777 84.0144,243.8837 84.8254,243.8137 C85.4804,243.7557 86.1194,243.5817 86.7294,243.2967 L88.0814,245.3687 C87.2074,245.8397 86.1984,246.1147 85.0754,246.1897 C83.7564,246.2797 82.3954,246.0607 81.0494,245.5457 C79.9564,245.1277 79.0534,244.5757 78.3684,243.9057 C77.6994,243.2527 77.2584,242.5277 77.0594,241.7517 C76.8604,240.9737 76.9064,240.2227 77.1994,239.4557 C77.5594,238.5147 78.1684,237.7187 79.0084,237.0897 C79.8794,236.4387 81.2204,235.8357 82.9954,235.2987 L90.1604,233.1337 L82.3324,230.1387 L83.6194,228.0847 L95.3394,232.5677 Z M80.8384,230.6377 L87.0704,233.0227 L82.7064,234.3417 C80.8194,234.9127 79.3744,235.5677 78.4094,236.2887 C77.4154,237.0327 76.6944,237.9787 76.2654,239.0987 C75.9004,240.0527 75.8414,241.0287 76.0904,242.0007 C76.3374,242.9567 76.8674,243.8387 77.6694,244.6207 C78.4534,245.3867 79.4694,246.0127 80.6924,246.4797 C81.9594,246.9647 83.2364,247.2087 84.5004,247.2087 C84.7144,247.2087 84.9274,247.2017 85.1414,247.1877 C86.6274,247.0897 87.9444,246.6737 89.0574,245.9517 L89.4774,245.6787 L87.0634,241.9797 L86.6554,242.2097 C86.0474,242.5537 85.4014,242.7577 84.7374,242.8177 C84.0794,242.8767 83.4434,242.7887 82.8494,242.5617 C82.1644,242.2987 81.6984,241.9657 81.4644,241.5717 C81.2474,241.2067 81.2194,240.8407 81.3794,240.4237 C81.5564,239.9597 81.8724,239.5807 82.3424,239.2637 C82.8564,238.9187 83.7054,238.5507 84.8584,238.1737 L94.9484,235.0597 L96.8354,232.0697 L83.2094,226.8567 L80.8384,230.6377 Z M113.3554,236.3357 L126.1754,237.3267 L121.4974,253.9357 L109.0164,252.9697 L109.6774,250.6857 L119.0484,251.4107 L120.3884,246.6087 L112.0934,245.9667 L112.7064,243.7827 L121.0274,244.4267 L122.4384,239.3727 L112.6934,238.6187 L113.3554,236.3357 Z M111.3904,239.5217 L121.1474,240.2757 L120.2854,243.3657 L111.9644,242.7227 L110.8024,246.8707 L119.0974,247.5117 L118.3064,250.3507 L108.9434,249.6267 L107.7144,253.8717 L122.2374,254.9957 L127.4684,236.4237 L112.6214,235.2757 L111.3904,239.5217 Z M148.3944,247.7007 C147.7054,249.3367 146.6034,250.7097 145.1204,251.7837 C143.6304,252.8617 141.8244,253.5337 139.7514,253.7827 C138.2334,253.9647 136.8524,253.8667 135.6414,253.4937 C134.6164,253.1777 133.7694,252.6707 133.1194,251.9827 L135.1254,249.8897 C136.3094,251.0077 137.8594,251.4587 139.7294,251.2347 C141.1224,251.0667 142.3324,250.5847 143.3264,249.8007 C144.3204,249.0187 145.0554,248.0137 145.5114,246.8167 C145.9634,245.6287 146.1094,244.3357 145.9454,242.9727 C145.7634,241.4607 145.1234,240.2977 144.0414,239.5177 C142.9724,238.7437 141.5674,238.4547 139.8714,238.6587 C138.0324,238.8797 136.5194,239.6907 135.3674,241.0737 L133.3914,239.4877 C134.8284,237.5877 137.0244,236.4487 139.9254,236.1017 C141.6204,235.8987 143.1534,236.0267 144.4824,236.4847 C145.7914,236.9347 146.8534,237.6707 147.6414,238.6737 C148.4324,239.6787 148.9204,240.9117 149.0904,242.3367 C149.3214,244.2567 149.0874,246.0607 148.3944,247.7007 L148.3944,247.7007 Z M148.4274,238.0547 C147.5184,236.8987 146.3004,236.0517 144.8084,235.5387 C143.3354,235.0307 141.6544,234.8867 139.8064,235.1087 C136.4174,235.5147 133.8904,236.9257 132.2964,239.3047 L132.0404,239.6857 L135.5474,242.4997 L135.8544,242.0747 C136.8854,240.6537 138.2384,239.8617 139.9904,239.6517 C141.4284,239.4807 142.5964,239.7067 143.4564,240.3287 C144.3134,240.9467 144.8034,241.8507 144.9534,243.0917 C145.0964,244.2927 144.9694,245.4257 144.5764,246.4607 C144.1864,247.4867 143.5574,248.3457 142.7074,249.0157 C141.8594,249.6837 140.8174,250.0957 139.6104,250.2417 C137.8554,250.4527 136.5104,249.9937 135.5004,248.8397 L135.1404,248.4287 L131.7794,251.9347 L132.0504,252.2777 C132.8594,253.2937 133.9684,254.0247 135.3464,254.4497 C136.2594,254.7307 137.2534,254.8707 138.3134,254.8707 C138.8174,254.8707 139.3374,254.8397 139.8704,254.7757 C142.1144,254.5057 144.0784,253.7717 145.7064,252.5937 C147.3394,251.4107 148.5544,249.8957 149.3164,248.0897 C150.0774,246.2877 150.3354,244.3117 150.0834,242.2177 C149.8904,240.6087 149.3344,239.2077 148.4274,238.0547 L148.4274,238.0547 Z M171.8454,246.0807 L161.0644,237.0027 L162.7754,249.2347 L159.8714,250.2447 L157.5104,233.1517 L160.0704,232.2617 L170.8394,241.3097 L169.1654,229.0997 L172.0704,228.0897 L174.4304,245.1817 L171.8454,246.0807 Z M168.0634,228.4237 L169.4964,238.8757 L160.2794,231.1307 L156.4074,232.4757 L159.0474,251.5897 L163.8794,249.9097 L162.4164,239.4477 L171.6364,247.2127 L175.5344,245.8577 L172.8944,226.7447 L168.0634,228.4237 Z M185.3914,240.1177 L180.1824,223.6687 L182.9424,222.1457 L188.1524,238.5957 L185.3914,240.1177 Z M178.9814,223.1887 L184.8054,241.5827 L189.3534,239.0757 L183.5284,220.6807 L178.9814,223.1887 Z M205.6964,226.5357 C205.0514,227.6197 204.0924,228.6527 202.8474,229.6067 C201.9224,230.3147 200.9604,230.8897 199.9864,231.3167 C199.1924,231.6627 198.4244,231.8927 197.6994,232.0007 L197.2084,229.5287 C197.8804,229.4437 198.5534,229.2657 199.2154,228.9977 C200.0584,228.6567 200.8664,228.1927 201.6154,227.6187 C202.6194,226.8507 203.2944,226.0437 203.6194,225.2207 C204.0684,224.0857 203.7474,223.3047 203.3994,222.8507 C203.0774,222.4297 202.6284,222.1827 202.1014,222.1387 C201.6434,222.0987 201.1564,222.1597 200.6454,222.3197 C200.1774,222.4657 199.5474,222.6987 198.7694,223.0127 C197.7044,223.4527 196.7844,223.7717 196.0344,223.9607 C195.3364,224.1357 194.6274,224.1497 193.9244,224.0017 C193.2574,223.8617 192.6754,223.4567 192.1444,222.7607 C191.4674,221.8777 191.1194,220.9107 191.1074,219.8857 C191.0954,218.8437 191.4114,217.7717 192.0444,216.6997 C192.6894,215.6057 193.6554,214.5617 194.9134,213.5977 C195.9944,212.7707 197.1554,212.1117 198.3654,211.6407 C199.3794,211.2447 200.3024,211.0087 201.1164,210.9367 L201.5524,213.5127 C200.6774,213.5867 199.7994,213.7817 198.9334,214.0947 C197.8814,214.4737 196.8954,215.0127 196.0044,215.6957 C195.0304,216.4407 194.3684,217.2137 194.0354,217.9927 C193.5674,219.0857 193.8874,219.8617 194.2384,220.3197 C194.5424,220.7167 195.1124,221.1567 196.0864,220.9917 C196.7164,220.8877 197.5894,220.6117 198.7494,220.1477 C199.8604,219.7197 200.8014,219.4077 201.5474,219.2207 C202.2434,219.0447 202.9664,219.0357 203.6994,219.1937 C204.3954,219.3427 205.0074,219.7737 205.5714,220.5107 C206.2484,221.3947 206.5884,222.3307 206.6104,223.3737 C206.6334,224.4137 206.3264,225.4777 205.6964,226.5357 L205.6964,226.5357 Z M203.9094,218.2157 C203.0234,218.0247 202.1484,218.0367 201.3024,218.2517 C200.5084,218.4507 199.5554,218.7657 198.3834,219.2157 C197.3004,219.6497 196.4734,219.9147 195.9224,220.0057 C195.3934,220.0937 195.1724,219.8947 195.0334,219.7127 C194.8554,219.4807 194.6534,219.0907 194.9554,218.3857 C195.2184,217.7667 195.7764,217.1287 196.6114,216.4897 C197.4224,215.8687 198.3174,215.3807 199.2734,215.0357 C200.2274,214.6907 201.1954,214.5047 202.1504,214.4827 L202.7284,214.4687 L201.9564,209.9067 L201.5264,209.9137 C200.4944,209.9317 199.3084,210.1987 198.0024,210.7087 C196.7044,211.2147 195.4614,211.9197 194.3054,212.8037 C192.9444,213.8467 191.8934,214.9867 191.1824,216.1917 C190.4564,217.4227 190.0934,218.6697 190.1074,219.8967 C190.1214,221.1427 190.5394,222.3107 191.3494,223.3687 C192.0244,224.2497 192.8214,224.7917 193.7184,224.9807 C194.5694,225.1607 195.4314,225.1437 196.2784,224.9297 C197.0754,224.7287 198.0414,224.3957 199.1474,223.9397 C199.8974,223.6367 200.5024,223.4127 200.9444,223.2737 C201.3314,223.1527 201.6924,223.1067 202.0154,223.1347 C202.2644,223.1557 202.4524,223.2587 202.6054,223.4587 C202.7854,223.6937 202.9904,224.0937 202.6894,224.8527 C202.4314,225.5047 201.8654,226.1677 201.0074,226.8247 C200.3294,227.3437 199.6004,227.7627 198.8404,228.0707 C198.0934,228.3727 197.3354,228.5447 196.5854,228.5807 L196.0054,228.6087 L196.8954,233.0847 L197.3394,233.0487 C198.3024,232.9697 199.3284,232.6947 200.3864,232.2327 C201.4344,231.7737 202.4664,231.1567 203.4554,230.4007 C204.8024,229.3697 205.8454,228.2407 206.5554,227.0477 C207.2834,225.8257 207.6374,224.5817 207.6104,223.3517 C207.5844,222.1077 207.1654,220.9467 206.3664,219.9027 C205.6614,218.9827 204.8354,218.4147 203.9094,218.2157 L203.9094,218.2157 Z M221.3594,200.7277 C220.9234,201.2877 220.3804,201.6077 219.7014,201.7077 C219.0244,201.8067 218.4274,201.6387 217.8624,201.1987 C217.4034,200.8407 217.0854,200.4297 216.8884,199.9417 C216.6914,199.4507 216.6304,198.9647 216.7034,198.4557 C216.7764,197.9437 216.9694,197.4907 217.2964,197.0737 C217.7414,196.5017 218.2914,196.1777 218.9754,196.0827 L218.9764,196.0827 C219.0974,196.0657 219.2164,196.0577 219.3354,196.0577 C219.8724,196.0577 220.3644,196.2367 220.8294,196.5997 C221.5204,197.1367 221.9004,197.7807 221.9934,198.5677 C222.0864,199.3547 221.8794,200.0607 221.3594,200.7277 L221.3594,200.7277 Z M221.4444,195.8107 C220.6644,195.2027 219.7904,194.9607 218.8384,195.0927 C217.8964,195.2227 217.1124,195.6827 216.5064,196.4587 C216.0774,197.0097 215.8104,197.6337 215.7134,198.3147 C215.6174,198.9937 215.7004,199.6667 215.9614,200.3147 C216.2214,200.9617 216.6544,201.5247 217.2474,201.9867 C217.8854,202.4847 218.5854,202.7347 219.3344,202.7347 C219.5024,202.7347 219.6724,202.7217 219.8454,202.6967 C220.7804,202.5597 221.5544,202.1047 222.1484,201.3417 C222.8284,200.4697 223.1094,199.4967 222.9864,198.4507 C222.8624,197.3997 222.3434,196.5107 221.4444,195.8107 L221.4444,195.8107 Z M243.7744,178.5037 C243.0454,180.2287 241.9904,181.3357 240.5484,181.8897 C239.1204,182.4397 237.4744,182.3287 235.6584,181.5597 C233.7524,180.7537 232.1324,179.6487 230.8454,178.2777 C229.5714,176.9187 228.7254,175.4087 228.3344,173.7897 C227.9464,172.1887 228.0844,170.5887 228.7434,169.0317 C229.4714,167.3067 230.5264,166.1987 231.9684,165.6447 C232.5634,165.4157 233.1954,165.3017 233.8624,165.3017 C234.7974,165.3017 235.7984,165.5267 236.8594,165.9747 C238.7644,166.7807 240.3834,167.8847 241.6724,169.2577 C242.9474,170.6147 243.7924,172.1257 244.1834,173.7457 C244.5714,175.3447 244.4334,176.9457 243.7744,178.5037 L243.7744,178.5037 Z M242.4004,168.5727 C241.0174,167.0987 239.2844,165.9147 237.2484,165.0537 C235.1834,164.1807 233.2874,164.0657 231.6094,164.7117 C229.9244,165.3597 228.6504,166.6817 227.8214,168.6417 C227.0774,170.4007 226.9224,172.2117 227.3614,174.0247 C227.7954,175.8137 228.7214,177.4747 230.1174,178.9627 C231.5004,180.4357 233.2334,181.6197 235.2694,182.4807 C236.4564,182.9827 237.5884,183.2337 238.6554,183.2337 C239.4424,183.2337 240.1954,183.0967 240.9084,182.8227 C242.5914,182.1757 243.8664,180.8537 244.6964,178.8927 C245.4404,177.1337 245.5944,175.3227 245.1564,173.5097 C244.7224,171.7197 243.7964,170.0587 242.4004,168.5727 L242.4004,168.5727 Z M240.6954,176.7817 C240.4194,177.4327 240.0174,177.8317 239.4684,178.0037 C238.8934,178.1817 238.1254,178.0717 237.1904,177.6767 C236.1544,177.2387 235.1314,176.6077 234.1484,175.7997 C233.1844,175.0097 232.4574,174.1347 231.9854,173.1997 C231.5474,172.3287 231.4954,171.5287 231.8234,170.7527 C232.0974,170.1027 232.4994,169.7027 233.0514,169.5307 C233.6254,169.3497 234.3914,169.4627 235.3274,169.8577 C236.3604,170.2957 237.3844,170.9257 238.3694,171.7327 C239.3354,172.5267 240.0624,173.4027 240.5324,174.3347 C240.9694,175.2057 241.0234,176.0067 240.6954,176.7817 L240.6954,176.7817 Z M239.0034,170.9597 C237.9444,170.0917 236.8384,169.4117 235.7164,168.9367 C234.5564,168.4457 233.5604,168.3237 232.7534,168.5767 C231.9164,168.8377 231.2934,169.4387 230.9014,170.3627 C230.4594,171.4107 230.5224,172.5167 231.0924,173.6497 L231.0924,173.6497 C231.6274,174.7107 232.4424,175.6947 233.5144,176.5727 C234.5714,177.4407 235.6764,178.1217 236.8004,178.5977 C237.5684,178.9227 238.2644,179.0857 238.8824,179.0857 C239.1984,179.0857 239.4924,179.0427 239.7654,178.9587 C240.6014,178.6967 241.2234,178.0957 241.6164,177.1727 C242.0584,176.1237 241.9954,175.0187 241.4244,173.8857 C240.8924,172.8277 240.0784,171.8427 239.0034,170.9597 L239.0034,170.9597 Z M251.2644,155.8937 C251.0124,157.0397 250.6004,158.0137 250.0414,158.7907 C249.4964,159.5477 248.8444,160.0907 248.1054,160.4047 C247.3684,160.7167 246.6174,160.7827 245.8154,160.6077 C244.8304,160.3917 243.9524,159.9077 243.2064,159.1707 C242.4314,158.4057 241.6364,157.1697 240.8414,155.4957 L237.6334,148.7337 L235.8384,156.9197 L233.6144,155.9517 L236.3024,143.6957 L238.0864,144.4787 L242.5094,153.6667 C243.1074,154.8567 243.6344,155.6947 244.1234,156.2267 C244.6424,156.7937 245.2534,157.1577 245.9354,157.3067 C246.6754,157.4677 247.3354,157.3147 247.9054,156.8507 C248.4394,156.4147 248.8154,155.7157 249.0214,154.7727 C249.1914,154.0027 249.1804,153.2107 248.9894,152.4177 C248.8344,151.7787 248.5674,151.1737 248.1944,150.6127 L250.0424,148.9667 C250.6374,149.7607 251.0604,150.7177 251.3004,151.8177 C251.5854,153.1167 251.5724,154.4887 251.2644,155.8937 L251.2644,155.8937 Z M250.4724,147.9157 L250.1404,147.5397 L246.8424,150.4777 L247.1314,150.8467 C247.5614,151.3987 247.8594,152.0067 248.0164,152.6537 C248.1724,153.2967 248.1814,153.9367 248.0454,154.5587 C247.8874,155.2757 247.6284,155.7857 247.2724,156.0757 C246.9424,156.3457 246.5804,156.4237 246.1504,156.3307 C245.6654,156.2237 245.2434,155.9687 244.8594,155.5507 C244.4414,155.0937 243.9514,154.3097 243.4074,153.2257 L238.8264,143.7107 L235.5884,142.2907 L232.4624,156.5407 L236.5544,158.3217 L237.9834,151.8047 L239.9374,155.9237 C240.7834,157.7037 241.6464,159.0357 242.5034,159.8817 C243.3854,160.7547 244.4284,161.3267 245.6004,161.5847 C245.9594,161.6627 246.3124,161.7017 246.6634,161.7017 C247.2904,161.7017 247.9044,161.5757 248.4964,161.3257 C249.4074,160.9387 250.2004,160.2827 250.8524,159.3747 C251.4924,158.4867 251.9604,157.3877 252.2414,156.1077 C252.5804,154.5607 252.5924,153.0457 252.2774,151.6037 C251.9604,150.1497 251.3524,148.9077 250.4724,147.9157 L250.4724,147.9157 Z M252.5374,137.9357 C251.4024,138.9587 249.8384,139.4437 247.8534,139.3777 C245.7864,139.3067 243.8784,138.8557 242.1844,138.0357 C240.5084,137.2247 239.1784,136.1167 238.2324,134.7447 C237.2974,133.3897 236.8534,131.8457 236.9114,130.1557 C236.9744,128.2837 237.5634,126.8717 238.7114,125.8387 C239.7784,124.8767 241.2324,124.3907 243.0384,124.3907 C243.1554,124.3907 243.2744,124.3927 243.3944,124.3967 C245.4634,124.4667 247.3704,124.9177 249.0634,125.7377 C250.7404,126.5497 252.0704,127.6567 253.0164,129.0297 C253.9504,130.3837 254.3944,131.9277 254.3374,133.6177 C254.2744,135.4887 253.6854,136.9017 252.5374,137.9357 L252.5374,137.9357 Z M253.8404,128.4627 C252.7954,126.9447 251.3344,125.7257 249.4994,124.8377 C247.6794,123.9567 245.6374,123.4717 243.4274,123.3977 C241.1934,123.3187 239.3774,123.8927 238.0414,125.0957 C236.7014,126.3027 235.9844,127.9937 235.9114,130.1217 C235.8464,132.0307 236.3504,133.7777 237.4094,135.3117 C238.4554,136.8287 239.9154,138.0487 241.7494,138.9367 C243.5694,139.8177 245.6114,140.3017 247.8204,140.3767 C247.9514,140.3817 248.0824,140.3837 248.2104,140.3837 C250.2704,140.3837 251.9504,139.8107 253.2074,138.6787 C254.5474,137.4697 255.2644,135.7787 255.3374,133.6527 C255.4014,131.7437 254.8984,129.9977 253.8404,128.4627 L253.8404,128.4627 Z M250.1364,134.6937 C249.6654,135.0667 248.9104,135.2317 247.8924,135.2037 C246.7694,135.1657 245.5884,134.9427 244.3824,134.5407 C243.1974,134.1467 242.2044,133.5907 241.4314,132.8867 C240.7104,132.2307 240.3744,131.5017 240.4034,130.6587 C240.4274,129.9537 240.6594,129.4367 241.1114,129.0797 C241.5444,128.7387 242.2134,128.5657 243.1034,128.5657 C243.1854,128.5657 243.2694,128.5677 243.3554,128.5697 C244.4794,128.6087 245.6614,128.8317 246.8664,129.2327 C248.0524,129.6277 249.0454,130.1837 249.8164,130.8867 C250.5384,131.5437 250.8744,132.2717 250.8444,133.1147 C250.8214,133.8197 250.5894,134.3357 250.1364,134.6937 L250.1364,134.6937 Z M247.1824,128.2837 C245.8854,127.8527 244.6094,127.6127 243.3884,127.5707 C242.1364,127.5257 241.1554,127.7717 240.4924,128.2947 C239.8044,128.8377 239.4384,129.6217 239.4034,130.6247 C239.3644,131.7627 239.8204,132.7727 240.7574,133.6267 C241.6344,134.4247 242.7484,135.0517 244.0664,135.4897 C245.3634,135.9217 246.6394,136.1617 247.8594,136.2027 C247.9534,136.2067 248.0454,136.2077 248.1344,136.2077 C249.2614,136.2077 250.1424,135.9637 250.7554,135.4787 C251.4454,134.9347 251.8114,134.1507 251.8444,133.1487 C251.8834,132.0107 251.4274,131.0017 250.4904,130.1477 C249.6144,129.3497 248.5014,128.7227 247.1824,128.2837 L247.1824,128.2837 Z M249.6764,103.8217 C250.5164,104.3527 251.2524,105.0967 251.8664,106.0387 C252.5934,107.1527 253.0694,108.4387 253.2804,109.8627 C253.4514,111.0217 253.4134,112.0777 253.1654,113.0047 C252.9244,113.9057 252.5084,114.6447 251.9284,115.2017 C251.3504,115.7557 250.6734,116.0837 249.8594,116.2047 C248.8664,116.3537 247.8704,116.2127 246.9104,115.7877 C245.9154,115.3467 244.7324,114.4737 243.3954,113.1917 L237.9954,108.0097 L239.2224,116.2987 L236.8014,116.1847 L234.9624,103.7727 L236.9064,103.8707 L244.3054,110.8887 C245.2884,111.7907 246.0784,112.3867 246.7214,112.7097 C247.4104,113.0557 248.1104,113.1797 248.8004,113.0757 C249.5474,112.9657 250.1124,112.5867 250.4794,111.9497 C250.8244,111.3517 250.9264,110.5647 250.7854,109.6107 C250.6694,108.8297 250.3784,108.0927 249.9194,107.4227 C249.5474,106.8797 249.0834,106.4077 248.5344,106.0157 L249.6764,103.8217 Z M247.6244,106.6127 C248.2224,106.9757 248.7174,107.4377 249.0924,107.9867 C249.4654,108.5317 249.7034,109.1277 249.7974,109.7577 C249.9044,110.4827 249.8414,111.0527 249.6124,111.4507 C249.4004,111.8197 249.0954,112.0217 248.6544,112.0867 C248.1654,112.1607 247.6784,112.0717 247.1714,111.8167 C246.6194,111.5387 245.8824,110.9797 244.9874,110.1577 L237.3264,102.8907 L233.7944,102.7137 L235.9324,117.1447 L240.3904,117.3557 L239.4134,110.7557 L242.7034,113.9127 C244.1244,115.2767 245.4034,116.2147 246.5054,116.7027 C247.6414,117.2037 248.8174,117.3677 250.0054,117.1937 C251.0174,117.0437 251.8974,116.6157 252.6204,115.9237 C253.3354,115.2377 253.8434,114.3427 254.1314,113.2627 C254.4154,112.2037 254.4614,111.0107 254.2684,109.7157 C254.0374,108.1487 253.5094,106.7277 252.7044,105.4927 C251.8904,104.2457 250.8814,103.3007 249.7074,102.6857 L249.2624,102.4527 L247.2224,106.3697 L247.6244,106.6127 Z M246.0474,81.8557 L243.7334,82.3997 L239.7674,73.8787 L234.9244,75.0687 L238.4364,82.6107 L236.2324,83.1497 L232.7104,75.5827 L227.6144,76.8327 L231.7384,85.6937 L229.4234,86.2367 L223.9984,74.5797 L240.7654,70.5067 L246.0474,81.8557 Z M228.8614,87.3977 L233.1644,86.3857 L229.0344,77.5147 L232.1494,76.7497 L235.6724,84.3157 L239.8564,83.2917 L236.3444,75.7487 L239.2074,75.0457 L243.1714,83.5597 L247.4734,82.5487 L241.3264,69.3417 L222.5764,73.8967 L228.8614,87.3977 Z M214.2464,59.0667 C213.9934,57.7057 214.1104,56.4187 214.5944,55.2387 C215.0804,54.0557 215.9134,53.0237 217.0694,52.1727 C218.6254,51.0267 220.3114,50.3407 222.0794,50.1347 C222.4524,50.0907 222.8234,50.0697 223.1924,50.0697 C224.5734,50.0697 225.9324,50.3717 227.2464,50.9727 C228.9174,51.7377 230.3924,52.9787 231.6304,54.6597 C232.5364,55.8887 233.1324,57.1397 233.4044,58.3787 C233.6344,59.4247 233.6104,60.4117 233.3324,61.3177 L230.5224,60.6027 C230.9114,59.0227 230.5434,57.4547 229.4234,55.9347 C228.5934,54.8067 227.5784,53.9907 226.4044,53.5107 C225.2334,53.0317 223.9974,52.8847 222.7304,53.0807 C221.4734,53.2727 220.2764,53.7827 219.1724,54.5967 C217.9454,55.4987 217.2504,56.6297 217.1034,57.9557 C216.9584,59.2677 217.3984,60.6317 218.4124,62.0077 C219.5094,63.4997 220.9624,64.4157 222.7324,64.7367 L222.3264,67.2367 C219.9634,66.9237 217.8914,65.5737 216.1594,63.2207 C215.1464,61.8447 214.5034,60.4467 214.2464,59.0667 L214.2464,59.0667 Z M222.7064,68.2807 L223.1644,68.3157 L223.8854,63.8787 L223.3634,63.8197 C221.6204,63.6227 220.2634,62.8357 219.2164,61.4147 C218.3574,60.2477 217.9804,59.1207 218.0974,58.0657 C218.2134,57.0137 218.7584,56.1417 219.7644,55.4017 C220.7374,54.6847 221.7864,54.2367 222.8804,54.0687 C223.9644,53.9037 225.0234,54.0267 226.0254,54.4367 C227.0264,54.8457 227.8994,55.5487 228.6194,56.5277 C229.6674,57.9517 229.9304,59.3477 229.4234,60.7937 L229.2434,61.3097 L233.9504,62.5067 L234.1144,62.1017 C234.6004,60.8957 234.6904,59.5697 234.3804,58.1637 C234.0794,56.7877 233.4244,55.4097 232.4354,54.0667 C231.0954,52.2467 229.4894,50.9007 227.6624,50.0637 C225.8274,49.2247 223.9094,48.9137 221.9634,49.1417 C220.0204,49.3677 218.1734,50.1167 216.4764,51.3677 C215.1704,52.3287 214.2254,53.5037 213.6694,54.8597 C213.1114,56.2197 212.9744,57.6967 213.2634,59.2487 C213.5474,60.7787 214.2514,62.3147 215.3544,63.8137 C217.3774,66.5627 219.8504,68.0657 222.7064,68.2807 L222.7064,68.2807 Z M209.1544,30.5247 L206.5374,44.3737 L216.3544,36.8797 L218.6604,38.9147 L204.9254,49.3617 L202.8934,47.5667 L205.4924,33.7427 L195.6744,41.1947 L193.3694,39.1597 L207.1034,28.7137 L209.1544,30.5247 Z M195.6284,42.4867 L204.0294,36.1087 L201.8054,47.9407 L204.8794,50.6527 L220.2364,38.9727 L216.4014,35.5867 L208.0044,41.9957 L210.2424,30.1517 L207.1504,27.4217 L191.7934,39.1017 L195.6284,42.4867 Z M194.6464,19.9857 L197.3264,21.6467 L185.5344,34.2427 L182.8544,32.5817 L194.6464,19.9857 Z M185.7044,35.5257 L198.8904,21.4397 L194.4764,18.7027 L181.2904,32.7887 L185.7044,35.5257 Z M178.9014,24.2627 C178.4574,25.2997 177.8034,26.0567 176.9034,26.5757 C176.0004,27.0967 174.8964,27.3457 173.6684,27.3207 C172.3934,27.2937 171.0104,26.9637 169.5574,26.3397 C168.3064,25.8027 167.1634,25.1127 166.1594,24.2897 C165.3164,23.5987 164.6584,22.9097 164.1984,22.2367 L166.2294,20.5937 C166.7214,21.3187 167.3214,21.9887 168.0204,22.5917 C168.8694,23.3247 169.8224,23.9207 170.8514,24.3617 C171.9784,24.8447 172.9764,25.0457 173.8184,24.9517 C175.0014,24.8237 175.5194,24.1647 175.7484,23.6337 C175.9444,23.1747 176.0474,22.4657 175.4274,21.6937 C175.0254,21.1927 174.3554,20.5677 173.3854,19.7867 C172.4764,19.0337 171.7434,18.3667 171.2074,17.8017 C170.7134,17.2807 170.3514,16.6547 170.1304,15.9407 C169.9194,15.2587 169.9944,14.5137 170.3604,13.6617 C170.7984,12.6387 171.4484,11.8837 172.3454,11.3527 C173.2414,10.8237 174.3254,10.5717 175.5504,10.6007 C176.8144,10.6317 178.1844,10.9607 179.6234,11.5787 C180.6944,12.0377 181.6674,12.5957 182.5144,13.2357 C183.2084,13.7587 183.7844,14.3147 184.2334,14.8937 L182.3194,16.5327 C181.9174,15.9897 181.4314,15.4907 180.8734,15.0437 C180.1634,14.4767 179.3624,13.9997 178.4944,13.6277 C177.3314,13.1287 176.2964,12.9357 175.4224,13.0557 C174.2134,13.2197 173.6894,13.8817 173.4634,14.4087 C173.2554,14.8957 173.2604,15.4077 173.4794,15.8887 C173.6674,16.3047 173.9614,16.7017 174.3504,17.0687 C174.7044,17.4027 175.2024,17.8257 175.8754,18.3637 C176.7824,19.0797 177.5104,19.7257 178.0414,20.2847 C178.5344,20.8057 178.8944,21.4177 179.1114,22.1027 C179.3154,22.7537 179.2474,23.4607 178.9014,24.2627 L178.9014,24.2627 Z M180.0644,21.8027 C179.8024,20.9707 179.3654,20.2287 178.7654,19.5967 C178.2034,19.0037 177.4384,18.3247 176.4974,17.5807 C175.8574,17.0697 175.3664,16.6527 175.0374,16.3407 C174.7424,16.0637 174.5244,15.7727 174.3894,15.4767 C174.2864,15.2477 174.2844,15.0337 174.3814,14.8027 C174.4994,14.5307 174.7484,14.1557 175.5574,14.0467 C176.2484,13.9507 177.1064,14.1197 178.0994,14.5467 C178.8854,14.8837 179.6084,15.3137 180.2484,15.8247 C180.8804,16.3297 181.4014,16.9067 181.7974,17.5407 L182.1064,18.0317 L185.5724,15.0637 L185.3224,14.6937 C184.7834,13.8947 184.0424,13.1347 183.1174,12.4377 C182.2054,11.7487 181.1624,11.1507 180.0174,10.6597 C178.4614,9.9917 176.9664,9.6347 175.5764,9.6007 C174.1554,9.5747 172.8964,9.8657 171.8364,10.4927 C170.7644,11.1267 169.9594,12.0597 169.4404,13.2677 C168.9844,14.3327 168.8944,15.3307 169.1744,16.2367 C169.4414,17.0987 169.8814,17.8567 170.4824,18.4897 C171.0454,19.0837 171.8074,19.7787 172.7544,20.5617 C173.6594,21.2897 174.2964,21.8817 174.6484,22.3197 C174.9804,22.7337 174.9194,23.0287 174.8284,23.2397 C174.7134,23.5077 174.4714,23.8757 173.7114,23.9577 C173.0434,24.0327 172.2134,23.8577 171.2464,23.4427 C170.3104,23.0417 169.4444,22.5007 168.6734,21.8357 C167.9034,21.1707 167.2664,20.4177 166.7824,19.5977 L166.4874,19.1007 L162.8884,22.0087 L163.1054,22.3797 C163.6254,23.2697 164.4384,24.1727 165.5244,25.0637 C166.6014,25.9457 167.8254,26.6847 169.1634,27.2587 C170.7354,27.9337 172.2434,28.2907 173.6464,28.3207 C173.7134,28.3227 173.7804,28.3227 173.8464,28.3227 C175.1944,28.3227 176.3894,28.0277 177.4034,27.4427 C178.4824,26.8197 179.2954,25.8827 179.8204,24.6577 C180.2574,23.6397 180.3394,22.6797 180.0644,21.8027 L180.0644,21.8027 Z M141.9814,12.1267 C142.1104,11.2597 142.4824,10.6107 143.1214,10.1437 C143.6264,9.7737 144.1784,9.5907 144.8004,9.5907 C144.9664,9.5907 145.1364,9.6037 145.3124,9.6297 C146.0144,9.7327 146.5604,10.0467 146.9824,10.5897 C147.3994,11.1247 147.5504,11.7307 147.4454,12.4407 C147.3624,13.0077 147.1564,13.5017 146.8334,13.9067 C146.5034,14.3197 146.1104,14.6127 145.6304,14.8007 C145.1504,14.9897 144.6594,15.0447 144.1374,14.9657 C143.4194,14.8607 142.8664,14.5417 142.4474,13.9927 L142.4464,13.9927 C142.0294,13.4477 141.8784,12.8377 141.9814,12.1267 L141.9814,12.1267 Z M143.9914,15.9557 C144.1914,15.9847 144.3884,15.9997 144.5854,15.9997 C145.0694,15.9997 145.5424,15.9097 145.9964,15.7317 C146.6334,15.4807 147.1784,15.0767 147.6144,14.5307 C148.0494,13.9847 148.3264,13.3307 148.4344,12.5867 C148.5804,11.6057 148.3574,10.7267 147.7714,9.9757 C147.1924,9.2307 146.4144,8.7807 145.4594,8.6397 C144.3634,8.4797 143.3804,8.7137 142.5294,9.3367 C141.6764,9.9617 141.1604,10.8507 140.9924,11.9807 C140.8484,12.9597 141.0714,13.8407 141.6534,14.6007 C142.2304,15.3557 143.0164,15.8117 143.9914,15.9557 L143.9914,15.9557 Z M107.9394,7.4237 C108.4984,5.6457 109.3994,4.1687 110.6194,3.0317 C111.8224,1.9097 113.2844,1.2447 114.9644,1.0547 C115.2974,1.0167 115.6184,0.9977 115.9274,0.9977 C117.3464,0.9977 118.5214,1.3957 119.4994,2.2037 C120.6774,3.1787 121.3884,4.6667 121.6104,6.6267 C121.8424,8.6837 121.6744,10.6357 121.1124,12.4307 C120.5534,14.2087 119.6524,15.6857 118.4324,16.8227 C117.2294,17.9447 115.7674,18.6107 114.0874,18.7997 C112.2274,19.0137 110.7444,18.6347 109.5524,17.6507 C108.3744,16.6757 107.6634,15.1877 107.4414,13.2277 C107.2094,11.1707 107.3774,9.2177 107.9394,7.4237 L107.9394,7.4237 Z M113.1444,19.8547 C113.4864,19.8547 113.8384,19.8347 114.2004,19.7937 C116.0974,19.5787 117.7514,18.8257 119.1144,17.5537 C120.4624,16.2977 121.4554,14.6747 122.0664,12.7307 C122.6714,10.8017 122.8524,8.7107 122.6044,6.5147 C122.3514,4.2887 121.5214,2.5787 120.1354,1.4337 C118.7464,0.2827 116.9704,-0.1783 114.8514,0.0607 C112.9544,0.2757 111.2994,1.0287 109.9374,2.2997 C108.5894,3.5567 107.5964,5.1787 106.9854,7.1237 C106.3804,9.0517 106.1994,11.1437 106.4474,13.3397 C106.7004,15.5667 107.5304,17.2767 108.9164,18.4207 C110.0684,19.3747 111.4874,19.8547 113.1444,19.8547 L113.1444,19.8547 Z M111.7184,9.0857 C111.9354,7.8567 112.3404,6.7937 112.9234,5.9257 C113.4674,5.1167 114.1394,4.6777 114.9774,4.5827 C115.0954,4.5697 115.2104,4.5627 115.3204,4.5627 C115.8584,4.5627 116.2944,4.7247 116.6434,5.0527 C117.0814,5.4657 117.3614,6.1877 117.4754,7.1977 C117.6014,8.3157 117.5534,9.5167 117.3334,10.7677 C117.1154,11.9997 116.7104,13.0637 116.1284,13.9277 L116.1284,13.9287 C115.5844,14.7377 114.9124,15.1767 114.0744,15.2717 C113.3714,15.3497 112.8284,15.1967 112.4084,14.8007 C111.9704,14.3887 111.6904,13.6677 111.5774,12.6567 C111.4504,11.5397 111.4984,10.3387 111.7184,9.0857 L111.7184,9.0857 Z M111.7224,15.5287 C112.2594,16.0357 112.9334,16.2917 113.7304,16.2917 C113.8784,16.2917 114.0304,16.2827 114.1864,16.2657 C115.3174,16.1377 116.2504,15.5387 116.9584,14.4867 C117.6184,13.5047 118.0764,12.3117 118.3174,10.9417 C118.5544,9.5967 118.6064,8.2987 118.4694,7.0857 C118.3274,5.8337 117.9444,4.9057 117.3294,4.3247 C116.6894,3.7237 115.8614,3.4747 114.8644,3.5887 C113.7344,3.7167 112.8014,4.3157 112.0934,5.3677 C111.4314,6.3527 110.9744,7.5447 110.7344,8.9127 C110.4964,10.2587 110.4454,11.5567 110.5834,12.7687 C110.7244,14.0217 111.1074,14.9497 111.7224,15.5287 L111.7224,15.5287 Z M88.2844,24.6347 L88.0914,22.6977 L93.9304,14.3357 C94.6764,13.2277 95.1484,12.3577 95.3714,11.6757 C95.6104,10.9447 95.6284,10.2347 95.4234,9.5657 C95.2024,8.8427 94.7444,8.3407 94.0594,8.0727 C93.4174,7.8207 92.6234,7.8377 91.7014,8.1187 C90.9464,8.3497 90.2614,8.7477 89.6664,9.3017 C89.1854,9.7497 88.7884,10.2787 88.4824,10.8797 L86.1414,10.0757 C86.5414,9.1687 87.1684,8.3307 88.0084,7.5817 C89.0014,6.6967 90.2024,6.0357 91.5794,5.6147 C92.6984,5.2727 93.7484,5.1527 94.7034,5.2597 C95.6304,5.3637 96.4234,5.6657 97.0594,6.1557 C97.6934,6.6457 98.1194,7.2667 98.3594,8.0527 C98.6544,9.0167 98.6634,10.0187 98.3864,11.0307 C98.0994,12.0797 97.4124,13.3797 96.3424,14.8947 L92.0214,21.0057 L100.0364,18.5567 L100.2844,20.9687 L88.2844,24.6347 Z M94.5274,19.1947 L97.1594,15.4717 C98.2964,13.8617 99.0334,12.4567 99.3514,11.2947 C99.6784,10.0967 99.6664,8.9077 99.3164,7.7607 C99.0164,6.7827 98.4644,5.9767 97.6714,5.3637 C96.8864,4.7607 95.9264,4.3907 94.8144,4.2657 C93.7284,4.1457 92.5394,4.2767 91.2864,4.6587 C89.7704,5.1217 88.4444,5.8537 87.3424,6.8347 C86.2304,7.8257 85.4474,8.9637 85.0134,10.2157 L84.8494,10.6897 L89.0274,12.1237 L89.2074,11.6917 C89.4774,11.0447 89.8614,10.4867 90.3474,10.0337 C90.8314,9.5837 91.3844,9.2607 91.9944,9.0747 C92.6954,8.8617 93.2684,8.8387 93.6954,9.0047 C94.0904,9.1597 94.3374,9.4307 94.4664,9.8587 C94.6124,10.3327 94.5964,10.8257 94.4204,11.3647 C94.2294,11.9497 93.7864,12.7617 93.1054,13.7707 L87.0604,22.4287 L87.4094,25.9477 L101.3624,21.6847 L100.9074,17.2447 L94.5274,19.1947 Z M70.5314,19.1307 C70.7494,18.1797 71.2184,17.5287 71.9664,17.1397 C72.3394,16.9457 72.6914,16.8487 73.0274,16.8487 C73.2554,16.8487 73.4754,16.8937 73.6914,16.9817 C74.2484,17.2107 74.7684,17.7827 75.2374,18.6847 C75.7554,19.6827 76.1414,20.8217 76.3834,22.0697 C76.6234,23.2937 76.6264,24.4317 76.3924,25.4507 L76.3924,25.4517 C76.1744,26.4027 75.7064,27.0527 74.9584,27.4417 C74.3324,27.7657 73.7694,27.8197 73.2334,27.5997 C72.6764,27.3717 72.1574,26.7987 71.6874,25.8967 C71.1694,24.8987 70.7834,23.7597 70.5414,22.5117 C70.3014,21.2857 70.2974,20.1487 70.5314,19.1307 L70.5314,19.1307 Z M70.8004,26.3577 C71.3814,27.4757 72.0734,28.2047 72.8544,28.5247 C73.1934,28.6637 73.5414,28.7337 73.8954,28.7337 C74.3904,28.7337 74.9004,28.5987 75.4194,28.3287 C76.4284,27.8037 77.0844,26.9107 77.3674,25.6747 C77.6314,24.5177 77.6314,23.2407 77.3664,21.8787 C77.1054,20.5367 76.6874,19.3067 76.1244,18.2237 C75.5444,17.1067 74.8524,16.3777 74.0704,16.0557 C73.2584,15.7237 72.3944,15.7887 71.5054,16.2527 C70.4954,16.7777 69.8394,17.6717 69.5564,18.9067 C69.2924,20.0627 69.2934,21.3397 69.5584,22.7027 C69.8194,24.0447 70.2374,25.2747 70.8004,26.3577 L70.8004,26.3577 Z M67.3414,17.2547 C68.0634,15.7757 69.1904,14.6307 70.6904,13.8507 C71.7464,13.3017 72.7444,13.0287 73.7084,13.0287 C74.2594,13.0287 74.8014,13.1187 75.3354,13.2977 C76.7854,13.7847 77.9824,14.9187 78.8924,16.6687 C79.8474,18.5077 80.3904,20.3907 80.5074,22.2657 C80.6254,24.1247 80.3134,25.8277 79.5834,27.3267 C78.8614,28.8057 77.7344,29.9507 76.2344,30.7307 C74.5724,31.5947 73.0514,31.7747 71.5894,31.2837 C70.1394,30.7967 68.9424,29.6627 68.0324,27.9127 C67.0774,26.0737 66.5344,24.1907 66.4174,22.3157 C66.2994,20.4567 66.6114,18.7537 67.3414,17.2547 L67.3414,17.2547 Z M67.1454,28.3737 C68.1794,30.3617 69.5674,31.6597 71.2714,32.2317 C71.9014,32.4437 72.5474,32.5487 73.2064,32.5487 C74.3354,32.5487 75.5034,32.2377 76.6954,31.6177 C78.3894,30.7367 79.6634,29.4407 80.4814,27.7647 C81.2894,26.1077 81.6334,24.2367 81.5054,22.2037 C81.3804,20.1877 80.7984,18.1707 79.7794,16.2077 C78.7454,14.2197 77.3574,12.9217 75.6534,12.3497 C73.9444,11.7767 72.1184,11.9817 70.2294,12.9637 C68.5354,13.8437 67.2614,15.1407 66.4434,16.8167 C65.6354,18.4737 65.2914,20.3447 65.4194,22.3777 C65.5454,24.3937 66.1264,26.4107 67.1454,28.3737 L67.1454,28.3737 Z M47.8724,29.5987 C48.4824,28.4177 49.3684,27.3697 50.5034,26.4847 C51.4264,25.7637 52.3664,25.2767 53.2944,25.0357 C54.1974,24.7997 55.0454,24.7987 55.8144,25.0287 C56.5814,25.2587 57.2004,25.6867 57.7074,26.3357 C58.3274,27.1317 58.6944,28.0647 58.7974,29.1077 C58.9054,30.1877 58.7274,31.6477 58.2704,33.4457 L56.4224,40.6977 L63.0304,35.5447 L64.1244,37.7087 L54.2304,45.4237 L53.3574,43.6847 L55.8184,33.7877 C56.1194,32.4867 56.2484,31.5057 56.2124,30.7877 C56.1734,30.0197 55.9364,29.3497 55.5064,28.7987 C55.0434,28.2037 54.4344,27.8987 53.6994,27.8927 C53.0494,27.8787 52.2724,28.1857 51.5124,28.7787 C50.8904,29.2637 50.3934,29.8807 50.0354,30.6117 C49.7474,31.2017 49.5654,31.8387 49.4944,32.5087 L47.0214,32.5957 C47.0704,31.6047 47.3554,30.5987 47.8724,29.5987 L47.8724,29.5987 Z M50.4474,33.4757 L50.4624,33.0077 C50.4824,32.3067 50.6414,31.6487 50.9334,31.0517 C51.2244,30.4587 51.6274,29.9587 52.1284,29.5677 C52.7074,29.1157 53.2604,28.9287 53.6914,28.8927 C54.1174,28.8957 54.4434,29.0617 54.7174,29.4127 C55.0234,29.8047 55.1854,30.2707 55.2144,30.8377 C55.2444,31.4527 55.1204,32.3697 54.8454,33.5537 L52.2974,43.8027 L53.8824,46.9637 L65.3874,37.9917 L63.3744,34.0077 L58.1134,38.1117 L59.2394,33.6927 C59.7324,31.7537 59.9134,30.2207 59.7934,29.0087 C59.6704,27.7747 59.2344,26.6687 58.4964,25.7207 C57.8654,24.9137 57.0604,24.3587 56.1014,24.0707 C55.1524,23.7867 54.1264,23.7867 53.0424,24.0677 C51.9814,24.3427 50.9204,24.8907 49.8874,25.6957 C48.6384,26.6707 47.6614,27.8287 46.9834,29.1387 C46.2994,30.4617 45.9754,31.8047 46.0174,33.1297 L46.0344,33.6307 L50.4474,33.4757 Z M22.3914,56.6987 L29.6964,46.5327 L31.3044,48.2837 L25.8204,55.9177 L29.2284,59.5547 L34.0834,52.7987 L35.6324,54.4557 L30.7634,61.2347 L34.3494,65.0627 L40.0524,57.1267 L41.6614,58.8777 L34.1584,69.3197 L22.3914,56.6987 Z M42.9484,58.7997 L39.9574,55.5447 L34.2484,63.4917 L32.0544,61.1507 L36.9234,54.3727 L33.9814,51.2267 L29.1274,57.9837 L27.1114,55.8337 L32.5914,48.2067 L29.6004,44.9517 L21.1004,56.7807 L34.2574,70.8937 L42.9484,58.7997 Z M13.0514,72.4197 C13.6784,71.0287 14.4764,69.8957 15.4234,69.0507 C16.2234,68.3377 17.0944,67.8757 18.0204,67.6737 L18.7744,70.4727 C17.2074,70.9087 16.0204,71.9987 15.2434,73.7177 C14.6674,74.9947 14.4544,76.2797 14.6104,77.5377 C14.7664,78.7937 15.2464,79.9427 16.0364,80.9517 C16.8194,81.9527 17.8504,82.7467 19.1014,83.3117 C20.4904,83.9387 21.8164,83.9897 23.0434,83.4677 C24.2574,82.9517 25.2304,81.8997 25.9344,80.3417 C26.6964,78.6527 26.7844,76.9387 26.1964,75.2377 L28.5744,74.3667 C29.4584,76.5797 29.2974,79.0477 28.0944,81.7107 C27.3924,83.2677 26.4894,84.5137 25.4114,85.4137 C24.3494,86.3007 23.1704,86.8297 21.9044,86.9867 C20.6334,87.1417 19.3294,86.9227 18.0194,86.3317 C16.2564,85.5367 14.8334,84.4027 13.7874,82.9627 C12.7444,81.5277 12.1384,79.8747 11.9854,78.0487 C11.8334,76.2157 12.1914,74.3227 13.0514,72.4197 L13.0514,72.4197 Z M12.9784,83.5507 C14.1274,85.1327 15.6844,86.3757 17.6074,87.2427 C18.7744,87.7697 19.9474,88.0347 21.1044,88.0347 C21.4134,88.0347 21.7204,88.0167 22.0274,87.9787 C23.4864,87.7987 24.8404,87.1937 26.0514,86.1817 C27.2474,85.1837 28.2414,83.8177 29.0064,82.1217 C30.4114,79.0117 30.5094,76.1187 29.2984,73.5237 L29.1044,73.1077 L24.8824,74.6537 L25.0874,75.1377 C25.7704,76.7537 25.7494,78.3207 25.0224,79.9307 C24.4254,81.2517 23.6284,82.1327 22.6524,82.5477 C21.6784,82.9617 20.6504,82.9137 19.5134,82.4007 C18.4114,81.9027 17.5054,81.2087 16.8234,80.3357 C16.1464,79.4707 15.7364,78.4877 15.6024,77.4147 C15.4684,76.3417 15.6554,75.2367 16.1554,74.1307 C16.8824,72.5177 17.9704,71.6037 19.4794,71.3367 L20.0174,71.2417 L18.7544,66.5517 L18.3204,66.6077 C17.0314,66.7747 15.8334,67.3447 14.7574,68.3047 C13.7064,69.2427 12.8254,70.4887 12.1394,72.0077 C11.2104,74.0677 10.8224,76.1277 10.9894,78.1317 C11.1574,80.1427 11.8264,81.9657 12.9784,83.5507 L12.9784,83.5507 Z M18.3394,113.3847 L2.4864,106.5747 L3.0514,103.8987 L16.3954,99.3567 L5.0384,94.5017 L5.6734,91.4927 L21.5284,98.3027 L20.9674,100.9547 L7.6564,105.5007 L18.9764,110.3747 L18.3394,113.3847 Z M20.1254,109.7797 L10.4354,105.6087 L21.8294,101.7177 L22.6764,97.7077 L4.9474,90.0927 L3.8894,95.0987 L13.6024,99.2507 L2.1904,103.1347 L1.3384,107.1707 L19.0664,114.7847 L20.1254,109.7797 Z M17.7994,125.7717 L1.0334,121.6957 L1.1634,118.5457 L17.9284,122.6217 L17.7994,125.7717 Z M18.9624,121.8427 L0.2144,117.2857 L0.0004,122.4737 L18.7494,127.0317 L18.9624,121.8427 Z M16.3854,143.6017 C16.6074,142.5017 16.6594,141.3797 16.5384,140.2657 C16.4074,139.0487 16.0904,138.0807 15.5974,137.3917 C14.9054,136.4237 14.0714,136.2947 13.5024,136.3567 C13.0054,136.4107 12.3374,136.6677 11.9684,137.5867 C11.7304,138.1797 11.5144,139.0697 11.3084,140.3017 C11.0974,141.4697 10.8764,142.4367 10.6484,143.1737 C10.4364,143.8607 10.0694,144.4837 9.5544,145.0267 C9.0644,145.5447 8.3784,145.8447 7.4564,145.9447 C6.3634,146.0637 5.3584,145.8607 4.4694,145.3457 C3.5684,144.8257 2.8194,144.0097 2.2414,142.9227 C1.6494,141.8077 1.2634,140.4517 1.0954,138.8937 C0.9704,137.7347 0.9794,136.6137 1.1204,135.5617 C1.2374,134.7007 1.4394,133.9257 1.7224,133.2507 L4.0894,134.1137 C3.8134,134.7337 3.6174,135.4017 3.5034,136.1057 C3.3564,137.0037 3.3344,137.9347 3.4354,138.8737 C3.5704,140.1297 3.9104,141.1247 4.4444,141.8297 C5.1804,142.8017 6.0134,142.9337 6.5844,142.8727 C7.1184,142.8157 7.5494,142.5667 7.8674,142.1327 C8.1364,141.7627 8.3384,141.3127 8.4664,140.7957 C8.5844,140.3247 8.7124,139.6657 8.8474,138.8317 C9.0264,137.6907 9.2324,136.7387 9.4584,136.0017 C9.6704,135.3167 10.0264,134.7027 10.5174,134.1777 C10.9844,133.6807 11.6334,133.3937 12.5034,133.2987 C13.6294,133.1767 14.6054,133.3767 15.4994,133.9057 C16.3954,134.4367 17.1474,135.2627 17.7364,136.3597 C18.3374,137.4827 18.7274,138.8497 18.8974,140.4227 C19.0434,141.7797 19.0034,143.1137 18.7784,144.3897 L18.7784,144.3907 C18.5894,145.4637 18.3124,146.3747 17.9514,147.1067 L15.5234,146.1417 C15.9154,145.3557 16.2044,144.5037 16.3854,143.6017 L16.3854,143.6017 Z M14.3844,146.1497 L14.0964,146.6507 L18.3954,148.3587 L18.6124,147.9877 C19.1324,147.0987 19.5204,145.9457 19.7624,144.5637 C20.0044,143.1947 20.0474,141.7657 19.8914,140.3157 C19.7084,138.6137 19.2794,137.1247 18.6174,135.8877 C17.9424,134.6277 17.0644,133.6707 16.0084,133.0457 C14.9354,132.4107 13.7214,132.1597 12.3954,132.3047 C11.2944,132.4237 10.4174,132.8237 9.7884,133.4937 C9.1914,134.1307 8.7584,134.8757 8.5034,135.7077 C8.2624,136.4897 8.0464,137.4887 7.8604,138.6737 C7.7294,139.4777 7.6064,140.1097 7.4964,140.5547 C7.3994,140.9457 7.2534,141.2787 7.0604,141.5417 C6.9124,141.7447 6.7264,141.8517 6.4764,141.8787 C6.1824,141.9087 5.7344,141.8777 5.2414,141.2267 C4.8184,140.6677 4.5454,139.8397 4.4294,138.7657 C4.3384,137.9167 4.3574,137.0757 4.4894,136.2667 C4.6184,135.4717 4.8654,134.7347 5.2244,134.0737 L5.5024,133.5647 L1.2144,132.0007 L1.0134,132.3997 C0.5824,133.2607 0.2854,134.2797 0.1304,135.4277 C-0.0226,136.5597 -0.0326,137.7617 0.1014,139.0017 C0.2834,140.6867 0.7064,142.1637 1.3584,143.3907 C2.0254,144.6477 2.9034,145.5967 3.9694,146.2117 C5.0454,146.8357 6.2554,147.0787 7.5634,146.9387 C8.7144,146.8137 9.6294,146.4027 10.2814,145.7147 C10.9014,145.0587 11.3464,144.3027 11.6034,143.4687 C11.8424,142.6937 12.0754,141.6877 12.2944,140.4727 C12.4854,139.3227 12.6884,138.4777 12.8964,137.9597 C13.0934,137.4667 13.3804,137.3757 13.6094,137.3507 C13.8974,137.3187 14.3384,137.3507 14.7844,137.9727 C15.1754,138.5217 15.4314,139.3287 15.5444,140.3737 C15.6544,141.3847 15.6074,142.4047 15.4054,143.4037 C15.2054,144.3977 14.8624,145.3217 14.3844,146.1497 L14.3844,146.1497 Z" id="Fill-1" fill="#918F5F" mask="url(#mask-2)"></path>
        </g>
    </g>
</svg>