<?xml version="1.0" encoding="UTF-8"?>
<svg width="85px" height="85px" viewBox="0 0 85 85" version="1.1" xmlns="http://www.w3.org/2000/svg" xmlns:xlink="http://www.w3.org/1999/xlink">
    <title>Slice</title>
    <defs>
        <polygon id="path-1" points="0 0.0770120482 84.5563919 0.0770120482 84.5563919 85 0 85"></polygon>
        <polygon id="path-3" points="0 85 85 85 85 0 0 0"></polygon>
    </defs>
    <g id="Page-1" stroke="none" stroke-width="1" fill="none" fill-rule="evenodd">
        <g id="Group-7-Copy">
            <g id="Group-3">
                <mask id="mask-2" fill="white">
                    <use xlink:href="#path-1"></use>
                </mask>
                <g id="Clip-2"></g>
                <path d="M77.5438919,75.2483084 L78.7982162,79.5254265 L74.5711892,78.0389301 L70.6370676,76.6545157 C69.3356486,77.5181976 67.9411892,78.2465349 66.4743649,78.8395277 C63.7773378,79.9280193 60.8367973,80.5416578 57.7538243,80.5416578 C47.2724054,80.5416578 38.3841622,73.6127036 35.4367297,64.1018795 C35.0967297,63.006506 34.8624054,61.868694 34.6855135,60.7102361 C34.5132162,59.5678361 34.3960541,58.4070843 34.3960541,57.2176578 C34.3960541,44.3564819 44.874027,33.8936578 57.7538243,33.8936578 C58.7772703,33.8936578 59.7777432,33.9819759 60.7678784,34.1115855 C61.9303108,34.261841 63.0663243,34.4946795 64.1678784,34.8101012 C73.9348378,37.6030169 81.1104459,46.5804916 81.1104459,57.2176578 C81.1104459,60.821494 80.2638919,64.2234602 78.7970676,67.2721542 C78.1193649,68.6806554 77.3061216,70.0100145 76.3711216,71.2453205 L77.5438919,75.2483084 Z M21.1050405,58.6215711 C19.6163919,57.9999036 18.1943649,57.2532145 16.8458514,56.3998554 L12.6900405,57.7016867 L5.54659459,59.9383133 L7.65091892,52.9256289 L8.86044595,48.8962602 C7.95645946,47.6448964 7.15125676,46.3178313 6.45517568,44.9265349 C4.53233784,41.0829783 3.44571622,36.7530988 3.44571622,32.1731759 C3.44571622,16.3722699 16.3186216,3.5179759 32.1435541,3.5179759 C47.4492973,3.5179759 59.9925405,15.5441446 60.7977432,30.6316241 C59.7972703,30.5169253 58.7830135,30.452694 57.7538243,30.452694 C42.9730135,30.452694 30.9501081,42.4593639 30.9501081,57.2176578 C30.9501081,58.435759 31.0397027,59.6309205 31.1970676,60.8054361 C27.6328108,60.6895904 24.2293649,59.9268434 21.1050405,58.6215711 L21.1050405,58.6215711 Z M84.5563919,57.2176578 C84.5563919,44.7005783 75.9059189,34.167788 64.2620676,31.2555855 C63.7738919,13.981947 49.5582162,0.0770120482 32.1435541,0.0770120482 C14.4199054,0.0770120482 -0.00022972973,14.4762988 -0.00022972973,32.1731759 C-0.00022972973,38.541253 1.87436486,44.4769157 5.09058108,49.4731952 L0.38227027,65.1605494 L16.4070676,60.1447711 C20.9959189,62.7289349 26.2762568,64.2223133 31.8988919,64.2647518 C35.0048378,75.6130506 45.4150405,83.9826217 57.7538243,83.9826217 C62.5873378,83.9826217 67.1245,82.6911133 71.0448378,80.4453108 L83.9935541,85 L80.152473,71.8945157 C82.9322027,67.675894 84.5563919,62.6348819 84.5563919,57.2176578 L84.5563919,57.2176578 Z" id="Fill-1" fill="#1D1D1B" mask="url(#mask-2)"></path>
            </g>
            <mask id="mask-4" fill="white">
                <use xlink:href="#path-3"></use>
            </mask>
            <g id="Clip-5"></g>
            <polygon id="Fill-4" fill="#1D1D1B" mask="url(#mask-4)" points="30 43 33 43 33 40 30 40"></polygon>
            <path d="M31,18 C27.140029,18 24,21.0307108 24,24.7553438 L27.5005633,24.7553438 C27.5005633,22.89248 29.0700145,21.3776719 31,21.3776719 C32.9299855,21.3776719 34.4994367,22.89248 34.4994367,24.7553438 C34.4994367,25.7141386 34.0949622,26.5985063 33.3603734,27.2475534 L29.2502817,30.8791527 L29.2502817,35 L32.7497183,35 L32.7497183,32.3655035 L35.7230002,29.7397631 C37.170771,28.4624646 38,26.6455704 38,24.7553438 C38,21.0307108 34.859971,18 31,18" id="Fill-6" fill="#1D1D1B" mask="url(#mask-4)"></path>
        </g>
    </g>
</svg>