<?xml version="1.0" encoding="UTF-8"?>
<svg width="47px" height="37px" viewBox="0 0 47 37" version="1.1" xmlns="http://www.w3.org/2000/svg" xmlns:xlink="http://www.w3.org/1999/xlink">
    <title>Slice</title>
    <defs>
        <polygon id="path-1" points="0.844 0.7711 7.073 0.7711 7.073 7 0.844 7"></polygon>
        <polygon id="path-3" points="0.884 0.7711 7.113 0.7711 7.113 7 0.884 7"></polygon>
        <polygon id="path-5" points="0.0001 0.821 45.297 0.821 45.297 26.8955 0.0001 26.8955"></polygon>
    </defs>
    <g id="Page-1" stroke="none" stroke-width="1" fill="none" fill-rule="evenodd">
        <g id="Group-10" transform="translate(1.000000, 0.000000)">
            <g id="Group-3" transform="translate(26.000000, 29.179100)">
                <mask id="mask-2" fill="white">
                    <use xlink:href="#path-1"></use>
                </mask>
                <g id="Clip-2"></g>
                <path d="M3.958,0.7711 C2.238,0.7711 0.844,2.1661 0.844,3.8851 C0.844,5.6051 2.238,7.0001 3.958,7.0001 C5.679,7.0001 7.073,5.6051 7.073,3.8851 C7.073,2.1661 5.679,0.7711 3.958,0.7711" id="Fill-1" fill="#FFFFFF" mask="url(#mask-2)"></path>
            </g>
            <g id="Group-6" transform="translate(9.000000, 29.179100)">
                <mask id="mask-4" fill="white">
                    <use xlink:href="#path-3"></use>
                </mask>
                <g id="Clip-5"></g>
                <path d="M3.999,0.7711 C2.278,0.7711 0.884,2.1661 0.884,3.8851 C0.884,5.6051 2.278,7.0001 3.999,7.0001 C5.719,7.0001 7.113,5.6051 7.113,3.8851 C7.113,2.1661 5.719,0.7711 3.999,0.7711" id="Fill-4" fill="#FFFFFF" mask="url(#mask-4)"></path>
            </g>
            <g id="Group-9" transform="translate(0.000000, 0.179100)">
                <mask id="mask-6" fill="white">
                    <use xlink:href="#path-5"></use>
                </mask>
                <g id="Clip-8"></g>
                <path d="M4.1641,9.9205 L37.0071,9.9205 L32.3391,23.8955 L8.8321,23.8955 L4.1641,9.9205 Z M40.0461,0.8205 L38.0091,6.9205 L0.0001,6.9205 L6.6721,26.8955 L34.5001,26.8955 L34.8421,25.8705 L34.8431,25.8705 L42.2061,3.8205 L45.2971,3.8205 L45.2971,0.8205 L40.0461,0.8205 Z" id="Fill-7" fill="#FFFFFF" mask="url(#mask-6)"></path>
            </g>
        </g>
    </g>
</svg>