<?xml version="1.0" encoding="UTF-8"?>
<svg width="76px" height="81px" viewBox="0 0 76 81" version="1.1" xmlns="http://www.w3.org/2000/svg" xmlns:xlink="http://www.w3.org/1999/xlink">
    <title>Slice</title>
    <defs>
        <polygon id="path-1" points="0 0.3269 73.8518 0.3269 73.8518 79.9999 0 79.9999"></polygon>
    </defs>
    <g id="Page-1" stroke="none" stroke-width="1" fill="none" fill-rule="evenodd">
        <g id="Group-6" transform="translate(1.000000, 0.000000)">
            <g id="Group-3" transform="translate(0.000000, 0.674000)">
                <mask id="mask-2" fill="white">
                    <use xlink:href="#path-1"></use>
                </mask>
                <g id="Clip-2"></g>
                <path d="M70.8518,58.7229 L38.4258,75.8189 L38.4258,60.4469 C48.9528,59.6739 57.2858,50.8829 57.2858,40.1619 C57.2858,37.0869 56.5808,34.1799 55.3548,31.5639 L70.8518,23.2109 L70.8518,58.7229 Z M2.9998,58.7229 L2.9998,23.2109 L18.4978,31.5639 C17.2708,34.1799 16.5658,37.0869 16.5658,40.1619 C16.5658,50.8829 24.8998,59.6739 35.4258,60.4469 L35.4258,75.8189 L2.9998,58.7229 Z M36.9258,57.5229 C27.3538,57.5229 19.5658,49.7349 19.5658,40.1619 C19.5658,30.5899 27.3538,22.8029 36.9258,22.8029 C46.4978,22.8029 54.2858,30.5899 54.2858,40.1619 C54.2858,49.7349 46.4978,57.5229 36.9258,57.5229 L36.9258,57.5229 Z M4.6888,20.7129 L36.9258,3.7169 L69.1638,20.7129 L53.8978,28.9419 C50.2488,23.4409 44.0068,19.8029 36.9258,19.8029 C29.8448,19.8029 23.6028,23.4409 19.9548,28.9419 L4.6888,20.7129 Z M72.3438,18.9979 L36.9258,0.3269 L1.5078,18.9979 L-0.0002,19.7929 L-0.0002,21.5939 L-0.0002,60.5339 L35.4258,79.2089 L36.9258,79.9999 L38.4258,79.2089 L73.8518,60.5339 L73.8518,21.5939 L73.8518,19.7929 L72.3438,18.9979 Z" id="Fill-1" fill="#1D1D1B" mask="url(#mask-2)"></path>
            </g>
            <path d="M40.3391,37.3832 L34.3531,37.3832 L34.3531,34.9942 L27.6181,38.8842 L34.3531,42.7732 L34.3531,40.3832 L40.3391,40.3832 C41.4371,40.3832 42.3301,41.2772 42.3301,42.3752 C42.3301,43.4732 41.4371,44.3662 40.3391,44.3662 L35.7241,44.3662 L35.7241,47.3662 L40.3391,47.3662 C43.0911,47.3662 45.3301,45.1272 45.3301,42.3752 C45.3301,39.6222 43.0911,37.3832 40.3391,37.3832" id="Fill-4" fill="#1D1D1B"></path>
        </g>
    </g>
</svg>