<?xml version="1.0" encoding="UTF-8"?>
<svg width="54px" height="32px" viewBox="0 0 54 32" version="1.1" xmlns="http://www.w3.org/2000/svg" xmlns:xlink="http://www.w3.org/1999/xlink">
    <title>Slice</title>
    <defs>
        <polygon id="path-1" points="0.0004 0.553 52.446 0.553 52.446 31 0.0004 31"></polygon>
    </defs>
    <g id="Page-1" stroke="none" stroke-width="1" fill="none" fill-rule="evenodd">
        <g id="Group-6" transform="translate(1.000000, 0.000000)">
            <g id="Group-3" transform="translate(0.000000, 0.447300)">
                <mask id="mask-2" fill="white">
                    <use xlink:href="#path-1"></use>
                </mask>
                <g id="Clip-2"></g>
                <path d="M42.8594,21.1221 C33.6854,30.2941 18.7614,30.2941 9.5884,21.1221 L4.2424,15.7771 L9.5884,10.4321 C18.7594,1.2591 33.6854,1.2581 42.8594,10.4321 L48.2044,15.7771 L42.8594,21.1221 Z M44.9804,8.3101 C34.6384,-2.0329 17.8084,-2.0329 7.4664,8.3101 L0.0004,15.7771 L7.4664,23.2431 C12.6374,28.4151 19.4304,31.0001 26.2234,31.0001 C33.0164,31.0001 39.8094,28.4151 44.9804,23.2431 L52.4464,15.7771 L44.9804,8.3101 Z" id="Fill-1" fill="#FFFFFF" mask="url(#mask-2)"></path>
            </g>
            <path d="M28.4844,18.4854 C27.2374,19.7314 25.2084,19.7314 23.9634,18.4854 C23.3584,17.8814 23.0264,17.0784 23.0264,16.2244 C23.0264,15.3704 23.3584,14.5684 23.9634,13.9644 C24.5674,13.3594 25.3694,13.0274 26.2234,13.0274 C27.0774,13.0274 27.8804,13.3594 28.4844,13.9644 C29.7304,15.2104 29.7304,17.2384 28.4844,18.4854 M26.2234,10.0274 C24.5684,10.0274 23.0114,10.6724 21.8414,11.8424 C20.6714,13.0124 20.0264,14.5694 20.0264,16.2244 C20.0264,17.8804 20.6714,19.4354 21.8414,20.6064 C23.0494,21.8144 24.6354,22.4184 26.2234,22.4184 C27.8094,22.4184 29.3974,21.8144 30.6054,20.6064 C33.0214,18.1894 33.0214,14.2574 30.6054,11.8424 C29.4344,10.6724 27.8794,10.0274 26.2234,10.0274" id="Fill-4" fill="#FFFFFF"></path>
        </g>
    </g>
</svg>